<?xml version="1.0" standalone="no"?>
<!DOCTYPE svg PUBLIC "-//W3C//DTD SVG 20010904//EN"
 "http://www.w3.org/TR/2001/REC-SVG-20010904/DTD/svg10.dtd">
<svg version="1.0" xmlns="http://www.w3.org/2000/svg"
 width="512.000000pt" height="512.000000pt" viewBox="0 0 512.000000 512.000000"
 preserveAspectRatio="xMidYMid meet">
<metadata>
Created by potrace 1.14, written by Peter Selinger 2001-2017
</metadata>
<g transform="translate(0.000000,512.000000) scale(0.100000,-0.100000)"
fill="#000000" stroke="none">
<path d="M2237 4105 c-34 -34 -15 -63 65 -103 35 -17 82 -49 105 -71 75 -70
141 -190 158 -284 5 -22 0 -26 -47 -42 -146 -48 -226 -161 -216 -306 3 -39 11
-76 17 -82 31 -31 9 -32 -396 -31 -225 0 -431 -4 -459 -9 -72 -13 -141 -67
-176 -137 l-27 -55 -1 -361 c0 -237 3 -371 10 -390 7 -19 11 -159 11 -404 0
-206 0 -380 0 -385 -1 -6 -40 -10 -100 -10 -67 0 -104 -4 -112 -12 -19 -19
-14 -67 21 -188 42 -145 65 -177 150 -217 45 -21 45 -21 1320 -21 l1275 0 50
22 c76 34 107 80 143 213 45 164 44 161 29 182 -13 18 -27 20 -116 20 l-101 1
-1 30 c-5 296 1 732 11 776 8 38 11 162 8 409 l-3 355 -27 47 c-30 51 -84 97
-138 118 -27 11 -113 14 -407 15 -205 0 -373 2 -374 5 0 3 8 23 17 45 22 53
20 138 -6 207 -33 88 -116 155 -215 174 -19 3 -35 9 -36 13 -5 38 -8 52 -19
91 -39 143 -142 276 -272 356 -70 43 -118 53 -141 29z"/>
</g>
</svg>
